<?xml version="1.0" encoding="UTF-8"?>
<svg xmlns="http://www.w3.org/2000/svg" width="256" height="256" viewBox="-128 -128 256 256">
  <rect width="100%" height="100%" fill="#0F172A" rx="12" />
  <g transform="translate(0,2)">
    <!-- leap frame 3: peak, scarf flowing -->
    <ellipse cx="0" cy="86" rx="60" ry="18" fill="#0F172A" opacity="0.9"/>
    <g transform="translate(0,-40)">
      <path d="M-46,0 q20 -28 46 6 q18 -30 36 -6" fill="#0F172A" />
      <path d="M-54,-36 Q-18,-52 24,-36" stroke="#A0E7E5" stroke-width="1.4" fill="none" stroke-opacity="0.9" />
    </g>
    <!-- head/hair -->
    <g transform="translate(0,-36)">
      <path d="M-48,-64 C-56,-28 -18,22 0,38 C18,22 56,-28 48,-64 C22,-88 -22,-88 -48,-64 Z" fill="url(#hairGrad)" />
      <ellipse cx="0" cy="-12" rx="30" ry="36" fill="#FFEFD5" />
      <ellipse cx="-6" cy="-8" rx="6" ry="4" fill="#FFD166" />
      <ellipse cx="8" cy="-8" rx="6" ry="4" fill="#FFD166" />
    </g>
  </g>
  <defs>
    <linearGradient id="hairGrad" x1="0" x2="0" y1="0" y2="1">
      <stop offset="0%" stop-color="#1E1B6B"/>
      <stop offset="100%" stop-color="#2EC4B6"/>
    </linearGradient>
  </defs>
</svg>